<svg width="76" height="80" fill="none" xmlns="http://www.w3.org/2000/svg"><g clip-path="url(#clip0_1910_285)"><path fill-rule="evenodd" clip-rule="evenodd" d="M75.581.322c.169 13.056.147 25.836.145 38.813-.004 13.286.082 26.627-.097 39.919-24.199.203-48.879-.049-73.345-.049-.718 0-1.488.128-2.164-.192C.034 66.339.069 52.568.071 40.144c.001-.615 1.174-1.434 1.636-1.828.651-.555 1.284-1.074 1.779-1.587 6.039-5.135 11.734-10.614 17.747-15.775 1.193-1.051 2.342-2.148 3.559-3.174.865-.761 1.742-1.623 2.645-2.405.257-.222.734-.444.674-.866-9.047-.249-18.792.003-27.943-.24C-.086 10.338.024 5.96.024 1.524.024.616-.111.134.601.033c.672-.096 1.48.048 2.261.048 12.084 0 23.519-.075 35.254.048C50.602.26 63.667.073 75.581.322zm-21.45 14.14H31.863c-.704 0-1.517-.158-2.02-.048-.967.21.55 1.3.865 1.587 1.485 1.545 3.124 2.937 4.666 4.425 2.1 1.924 4.16 3.887 6.3 5.771 2.051 1.979 4.05 3.951 6.156 5.916 1.441 1.344 3.204 2.819 4.714 4.329.437.437 1.377 1.017 1.49 1.539.137.628 0 1.588 0 2.404-.001 5.607.093 11.427-.096 16.882-.634-.329-1.188-.851-1.683-1.347-3.573-3.574-7.298-6.955-11.014-10.341-3.409-3.369-7.376-6.966-10.918-10.437-.4-.393-1.136-1.373-1.683-1.394-.392-.016-.675.301-1.01.577a72.887 72.887 0 00-2.598 2.26c-1.184.98-2.26 2.069-3.415 3.078-1.734 1.602-3.297 3.023-5.05 4.617-.543.494-1.43 1.055-1.587 1.683-.155.618-.048 1.52-.048 2.357v14.236c0 .741-.116 1.549.143 2.261 7.681.364 15.624-.104 23.519.192 1.938.073 3.905-.048 5.868-.048 4.94 0 9.77-.123 14.717.048.939.032 1.917.181 2.838-.096.255-.984.145-2.014.145-3.03v-3.174c-.002-14.927.105-29.786-.145-44.055-2.485-.281-5.161-.192-7.886-.192z" fill="#000"/></g><defs><clipPath id="clip0_1910_285"><path fill="#fff" d="M0 0h75.743v79.133H0z"/></clipPath></defs></svg>